<svg width="129" height="128" viewBox="0 0 129 128" fill="none" xmlns="http://www.w3.org/2000/svg">
<path d="M14.5656 105.48C14.3096 105.16 13.9896 104.896 13.6056 104.688C13.2376 104.464 12.7816 104.352 12.2376 104.352C11.7256 104.352 11.2776 104.464 10.8936 104.688C10.5256 104.896 10.3416 105.208 10.3416 105.624C10.3416 105.96 10.4456 106.232 10.6536 106.44C10.8776 106.648 11.1336 106.816 11.4216 106.944C11.7256 107.072 12.0456 107.168 12.3816 107.232C12.7176 107.296 13.0056 107.352 13.2456 107.4C13.7096 107.512 14.1416 107.648 14.5416 107.808C14.9576 107.968 15.3096 108.176 15.5976 108.432C15.9016 108.688 16.1336 109 16.2936 109.368C16.4696 109.736 16.5576 110.184 16.5576 110.712C16.5576 111.352 16.4216 111.904 16.1496 112.368C15.8776 112.816 15.5256 113.184 15.0936 113.472C14.6616 113.76 14.1656 113.968 13.6056 114.096C13.0616 114.224 12.5096 114.288 11.9496 114.288C11.0056 114.288 10.1736 114.144 9.45362 113.856C8.74962 113.568 8.11762 113.04 7.55762 112.272L9.18962 110.928C9.54162 111.28 9.93362 111.592 10.3656 111.864C10.7976 112.136 11.3256 112.272 11.9496 112.272C12.2216 112.272 12.4936 112.248 12.7656 112.2C13.0536 112.136 13.3016 112.048 13.5096 111.936C13.7336 111.808 13.9096 111.656 14.0376 111.48C14.1816 111.288 14.2536 111.072 14.2536 110.832C14.2536 110.512 14.1496 110.248 13.9416 110.04C13.7496 109.832 13.5096 109.672 13.2216 109.56C12.9496 109.432 12.6536 109.336 12.3336 109.272C12.0296 109.192 11.7576 109.128 11.5176 109.08C11.0536 108.968 10.6136 108.84 10.1976 108.696C9.78162 108.552 9.41362 108.36 9.09362 108.12C8.77362 107.88 8.51762 107.576 8.32562 107.208C8.13362 106.84 8.03762 106.384 8.03762 105.84C8.03762 105.248 8.15762 104.736 8.39762 104.304C8.65362 103.856 8.98162 103.488 9.38162 103.2C9.79762 102.912 10.2616 102.696 10.7736 102.552C11.3016 102.408 11.8296 102.336 12.3576 102.336C13.1256 102.336 13.8616 102.48 14.5656 102.768C15.2696 103.056 15.8296 103.536 16.2456 104.208L14.5656 105.48ZM19.3497 95.856H21.5097V114H19.3497V95.856ZM26.6993 108.312C26.6993 108.888 26.7873 109.424 26.9633 109.92C27.1393 110.4 27.3873 110.816 27.7073 111.168C28.0273 111.504 28.4193 111.776 28.8833 111.984C29.3473 112.176 29.8673 112.272 30.4433 112.272C31.0193 112.272 31.5393 112.176 32.0033 111.984C32.4673 111.776 32.8593 111.504 33.1793 111.168C33.4993 110.816 33.7473 110.4 33.9233 109.92C34.0993 109.424 34.1873 108.888 34.1873 108.312C34.1873 107.736 34.0993 107.208 33.9233 106.728C33.7473 106.232 33.4993 105.816 33.1793 105.48C32.8593 105.128 32.4673 104.856 32.0033 104.664C31.5393 104.456 31.0193 104.352 30.4433 104.352C29.8673 104.352 29.3473 104.456 28.8833 104.664C28.4193 104.856 28.0273 105.128 27.7073 105.48C27.3873 105.816 27.1393 106.232 26.9633 106.728C26.7873 107.208 26.6993 107.736 26.6993 108.312ZM24.3953 108.312C24.3953 107.48 24.5473 106.704 24.8513 105.984C25.1713 105.264 25.6033 104.632 26.1473 104.088C26.6913 103.544 27.3313 103.12 28.0673 102.816C28.8033 102.496 29.5953 102.336 30.4433 102.336C31.2913 102.336 32.0833 102.496 32.8193 102.816C33.5553 103.12 34.1953 103.544 34.7393 104.088C35.2833 104.632 35.7073 105.264 36.0113 105.984C36.3313 106.704 36.4913 107.48 36.4913 108.312C36.4913 109.144 36.3313 109.928 36.0113 110.664C35.7073 111.384 35.2833 112.016 34.7393 112.56C34.1953 113.088 33.5553 113.512 32.8193 113.832C32.0833 114.136 31.2913 114.288 30.4433 114.288C29.5953 114.288 28.8033 114.136 28.0673 113.832C27.3313 113.512 26.6913 113.088 26.1473 112.56C25.6033 112.016 25.1713 111.384 24.8513 110.664C24.5473 109.928 24.3953 109.144 24.3953 108.312ZM40.9493 108.312C40.9493 108.888 41.0373 109.424 41.2133 109.92C41.3893 110.4 41.6373 110.816 41.9573 111.168C42.2773 111.504 42.6693 111.776 43.1333 111.984C43.5973 112.176 44.1173 112.272 44.6933 112.272C45.2693 112.272 45.7893 112.176 46.2533 111.984C46.7173 111.776 47.1093 111.504 47.4293 111.168C47.7493 110.816 47.9973 110.4 48.1733 109.92C48.3493 109.424 48.4373 108.888 48.4373 108.312C48.4373 107.736 48.3493 107.208 48.1733 106.728C47.9973 106.232 47.7493 105.816 47.4293 105.48C47.1093 105.128 46.7173 104.856 46.2533 104.664C45.7893 104.456 45.2693 104.352 44.6933 104.352C44.1173 104.352 43.5973 104.456 43.1333 104.664C42.6693 104.856 42.2773 105.128 41.9573 105.48C41.6373 105.816 41.3893 106.232 41.2133 106.728C41.0373 107.208 40.9493 107.736 40.9493 108.312ZM38.6453 108.312C38.6453 107.48 38.7973 106.704 39.1013 105.984C39.4213 105.264 39.8533 104.632 40.3973 104.088C40.9413 103.544 41.5813 103.12 42.3173 102.816C43.0533 102.496 43.8453 102.336 44.6933 102.336C45.5413 102.336 46.3333 102.496 47.0693 102.816C47.8053 103.12 48.4453 103.544 48.9893 104.088C49.5333 104.632 49.9573 105.264 50.2613 105.984C50.5813 106.704 50.7413 107.48 50.7413 108.312C50.7413 109.144 50.5813 109.928 50.2613 110.664C49.9573 111.384 49.5333 112.016 48.9893 112.56C48.4453 113.088 47.8053 113.512 47.0693 113.832C46.3333 114.136 45.5413 114.288 44.6933 114.288C43.8453 114.288 43.0533 114.136 42.3173 113.832C41.5813 113.512 40.9413 113.088 40.3973 112.56C39.8533 112.016 39.4213 111.384 39.1013 110.664C38.7973 109.928 38.6453 109.144 38.6453 108.312ZM53.4473 102.624H55.6073V104.256H55.6553C56.0713 103.648 56.6393 103.176 57.3593 102.84C58.0953 102.504 58.8473 102.336 59.6153 102.336C60.4953 102.336 61.2873 102.488 61.9913 102.792C62.7113 103.096 63.3193 103.52 63.8153 104.064C64.3273 104.608 64.7193 105.248 64.9913 105.984C65.2633 106.704 65.3993 107.48 65.3993 108.312C65.3993 109.16 65.2633 109.952 64.9913 110.688C64.7193 111.408 64.3273 112.04 63.8153 112.584C63.3193 113.112 62.7113 113.528 61.9913 113.832C61.2873 114.136 60.4953 114.288 59.6153 114.288C58.7993 114.288 58.0313 114.12 57.3113 113.784C56.5913 113.432 56.0393 112.96 55.6553 112.368H55.6073V120.768H53.4473V102.624ZM59.3513 104.352C58.7753 104.352 58.2553 104.456 57.7913 104.664C57.3273 104.856 56.9353 105.128 56.6153 105.48C56.2953 105.816 56.0473 106.232 55.8713 106.728C55.6953 107.208 55.6073 107.736 55.6073 108.312C55.6073 108.888 55.6953 109.424 55.8713 109.92C56.0473 110.4 56.2953 110.816 56.6153 111.168C56.9353 111.504 57.3273 111.776 57.7913 111.984C58.2553 112.176 58.7753 112.272 59.3513 112.272C59.9273 112.272 60.4473 112.176 60.9113 111.984C61.3753 111.776 61.7673 111.504 62.0873 111.168C62.4073 110.816 62.6553 110.4 62.8313 109.92C63.0073 109.424 63.0953 108.888 63.0953 108.312C63.0953 107.736 63.0073 107.208 62.8313 106.728C62.6553 106.232 62.4073 105.816 62.0873 105.48C61.7673 105.128 61.3753 104.856 60.9113 104.664C60.4473 104.456 59.9273 104.352 59.3513 104.352ZM74.1672 105.48C73.9112 105.16 73.5912 104.896 73.2072 104.688C72.8392 104.464 72.3832 104.352 71.8392 104.352C71.3272 104.352 70.8792 104.464 70.4952 104.688C70.1272 104.896 69.9432 105.208 69.9432 105.624C69.9432 105.96 70.0472 106.232 70.2552 106.44C70.4792 106.648 70.7352 106.816 71.0232 106.944C71.3272 107.072 71.6472 107.168 71.9832 107.232C72.3192 107.296 72.6072 107.352 72.8472 107.4C73.3112 107.512 73.7432 107.648 74.1432 107.808C74.5592 107.968 74.9112 108.176 75.1992 108.432C75.5032 108.688 75.7352 109 75.8952 109.368C76.0712 109.736 76.1592 110.184 76.1592 110.712C76.1592 111.352 76.0232 111.904 75.7512 112.368C75.4792 112.816 75.1272 113.184 74.6952 113.472C74.2632 113.76 73.7672 113.968 73.2072 114.096C72.6632 114.224 72.1112 114.288 71.5512 114.288C70.6072 114.288 69.7752 114.144 69.0552 113.856C68.3512 113.568 67.7192 113.04 67.1592 112.272L68.7912 110.928C69.1432 111.28 69.5352 111.592 69.9672 111.864C70.3992 112.136 70.9272 112.272 71.5512 112.272C71.8232 112.272 72.0952 112.248 72.3672 112.2C72.6552 112.136 72.9032 112.048 73.1112 111.936C73.3352 111.808 73.5112 111.656 73.6392 111.48C73.7832 111.288 73.8552 111.072 73.8552 110.832C73.8552 110.512 73.7512 110.248 73.5432 110.04C73.3512 109.832 73.1112 109.672 72.8232 109.56C72.5512 109.432 72.2552 109.336 71.9352 109.272C71.6312 109.192 71.3592 109.128 71.1192 109.08C70.6552 108.968 70.2152 108.84 69.7992 108.696C69.3832 108.552 69.0152 108.36 68.6952 108.12C68.3752 107.88 68.1192 107.576 67.9272 107.208C67.7352 106.84 67.6392 106.384 67.6392 105.84C67.6392 105.248 67.7592 104.736 67.9992 104.304C68.2552 103.856 68.5832 103.488 68.9832 103.2C69.3992 102.912 69.8632 102.696 70.3752 102.552C70.9032 102.408 71.4312 102.336 71.9592 102.336C72.7272 102.336 73.4632 102.48 74.1672 102.768C74.8712 103.056 75.4312 103.536 75.8472 104.208L74.1672 105.48ZM84.8792 104.496H81.7832V109.656C81.7832 109.976 81.7912 110.296 81.8072 110.616C81.8232 110.92 81.8792 111.2 81.9752 111.456C82.0872 111.696 82.2472 111.896 82.4552 112.056C82.6792 112.2 82.9992 112.272 83.4152 112.272C83.6712 112.272 83.9352 112.248 84.2072 112.2C84.4792 112.152 84.7272 112.064 84.9512 111.936V113.904C84.6952 114.048 84.3592 114.144 83.9432 114.192C83.5432 114.256 83.2312 114.288 83.0072 114.288C82.1752 114.288 81.5272 114.176 81.0632 113.952C80.6152 113.712 80.2792 113.408 80.0552 113.04C79.8472 112.672 79.7192 112.264 79.6712 111.816C79.6392 111.352 79.6232 110.888 79.6232 110.424V104.496H77.1272V102.624H79.6232V99.432H81.7832V102.624H84.8792V104.496ZM87.7141 104.016C88.3221 103.456 89.0261 103.04 89.8261 102.768C90.6261 102.48 91.4261 102.336 92.2261 102.336C93.0581 102.336 93.7701 102.44 94.3621 102.648C94.9701 102.856 95.4661 103.136 95.8501 103.488C96.2341 103.84 96.5141 104.248 96.6901 104.712C96.8821 105.16 96.9781 105.632 96.9781 106.128V111.936C96.9781 112.336 96.9861 112.704 97.0021 113.04C97.0181 113.376 97.0421 113.696 97.0741 114H95.1541C95.1061 113.424 95.0821 112.848 95.0821 112.272H95.0341C94.5541 113.008 93.9861 113.528 93.3301 113.832C92.6741 114.136 91.9141 114.288 91.0501 114.288C90.5221 114.288 90.0181 114.216 89.5381 114.072C89.0581 113.928 88.6341 113.712 88.2661 113.424C87.9141 113.136 87.6341 112.784 87.4261 112.368C87.2181 111.936 87.1141 111.44 87.1141 110.88C87.1141 110.144 87.2741 109.528 87.5941 109.032C87.9301 108.536 88.3781 108.136 88.9381 107.832C89.5141 107.512 90.1781 107.288 90.9301 107.16C91.6981 107.016 92.5141 106.944 93.3781 106.944H94.9621V106.464C94.9621 106.176 94.9061 105.888 94.7941 105.6C94.6821 105.312 94.5141 105.056 94.2901 104.832C94.0661 104.592 93.7861 104.408 93.4501 104.28C93.1141 104.136 92.7141 104.064 92.2501 104.064C91.8341 104.064 91.4661 104.104 91.1461 104.184C90.8421 104.264 90.5621 104.368 90.3061 104.496C90.0501 104.608 89.8181 104.744 89.6101 104.904C89.4021 105.064 89.2021 105.216 89.0101 105.36L87.7141 104.016ZM93.8101 108.528C93.2981 108.528 92.7701 108.56 92.2261 108.624C91.6981 108.672 91.2101 108.776 90.7621 108.936C90.3301 109.096 89.9701 109.32 89.6821 109.608C89.4101 109.896 89.2741 110.264 89.2741 110.712C89.2741 111.368 89.4901 111.84 89.9221 112.128C90.3701 112.416 90.9701 112.56 91.7221 112.56C92.3141 112.56 92.8181 112.464 93.2341 112.272C93.6501 112.064 93.9861 111.8 94.2421 111.48C94.4981 111.16 94.6821 110.808 94.7941 110.424C94.9061 110.024 94.9621 109.632 94.9621 109.248V108.528H93.8101ZM106.159 105.48C105.903 105.16 105.583 104.896 105.199 104.688C104.831 104.464 104.375 104.352 103.831 104.352C103.319 104.352 102.871 104.464 102.487 104.688C102.119 104.896 101.935 105.208 101.935 105.624C101.935 105.96 102.039 106.232 102.247 106.44C102.471 106.648 102.727 106.816 103.015 106.944C103.319 107.072 103.639 107.168 103.975 107.232C104.311 107.296 104.599 107.352 104.839 107.4C105.303 107.512 105.735 107.648 106.135 107.808C106.551 107.968 106.903 108.176 107.191 108.432C107.495 108.688 107.727 109 107.887 109.368C108.063 109.736 108.151 110.184 108.151 110.712C108.151 111.352 108.015 111.904 107.743 112.368C107.471 112.816 107.119 113.184 106.687 113.472C106.255 113.76 105.759 113.968 105.199 114.096C104.655 114.224 104.103 114.288 103.543 114.288C102.599 114.288 101.767 114.144 101.047 113.856C100.343 113.568 99.7114 113.04 99.1514 112.272L100.783 110.928C101.135 111.28 101.527 111.592 101.959 111.864C102.391 112.136 102.919 112.272 103.543 112.272C103.815 112.272 104.087 112.248 104.359 112.2C104.647 112.136 104.895 112.048 105.103 111.936C105.327 111.808 105.503 111.656 105.631 111.48C105.775 111.288 105.847 111.072 105.847 110.832C105.847 110.512 105.743 110.248 105.535 110.04C105.343 109.832 105.103 109.672 104.815 109.56C104.543 109.432 104.247 109.336 103.927 109.272C103.623 109.192 103.351 109.128 103.111 109.08C102.647 108.968 102.207 108.84 101.791 108.696C101.375 108.552 101.007 108.36 100.687 108.12C100.367 107.88 100.111 107.576 99.9194 107.208C99.7274 106.84 99.6314 106.384 99.6314 105.84C99.6314 105.248 99.7514 104.736 99.9914 104.304C100.247 103.856 100.575 103.488 100.975 103.2C101.391 102.912 101.855 102.696 102.367 102.552C102.895 102.408 103.423 102.336 103.951 102.336C104.719 102.336 105.455 102.48 106.159 102.768C106.863 103.056 107.423 103.536 107.839 104.208L106.159 105.48ZM110.775 95.856H112.935V104.376H112.983C113.255 103.768 113.727 103.28 114.399 102.912C115.071 102.528 115.847 102.336 116.727 102.336C117.271 102.336 117.791 102.424 118.287 102.6C118.799 102.76 119.239 103.016 119.607 103.368C119.991 103.72 120.295 104.176 120.519 104.736C120.743 105.28 120.855 105.928 120.855 106.68V114H118.695V107.28C118.695 106.752 118.623 106.304 118.479 105.936C118.335 105.552 118.143 105.248 117.903 105.024C117.663 104.784 117.383 104.616 117.063 104.52C116.759 104.408 116.439 104.352 116.103 104.352C115.655 104.352 115.239 104.424 114.855 104.568C114.471 104.712 114.135 104.944 113.847 105.264C113.559 105.568 113.335 105.96 113.175 106.44C113.015 106.92 112.935 107.488 112.935 108.144V114H110.775V95.856Z" fill="white"/>
<path d="M57.7817 16.6812L57.7817 16.6812L57.7836 16.6824C67.2036 22.3425 70.5289 34.093 64.9196 43.5229L47.9183 10.1482L57.7817 16.6812Z" fill="#67CB20" stroke="#67CB20" stroke-width="0.1"/>
<path d="M64.7923 43.4935L54.6558 37.4028C45.2372 31.7436 42.1723 19.5386 47.7839 10.1048L64.7923 43.4935Z" fill="#6BA443" stroke="#6BA443" stroke-width="0.1"/>
<path d="M26.7691 50.3003L35.694 42.542C43.9867 35.3332 56.5415 36.1898 63.7794 44.442L26.7691 50.3003Z" fill="#0077CC" stroke="#0077CC" stroke-width="0.1"/>
<path d="M63.7123 44.5538L54.7873 52.3121C46.4946 59.5209 33.9399 58.6643 26.7019 50.4121L63.7123 44.5538Z" fill="#00639A" stroke="#157DB7" stroke-width="0.1"/>
<path d="M58.5163 82.8639L53.8957 71.9784C49.6023 61.8639 54.2966 50.1884 64.3816 45.8547L58.5163 82.8639Z" fill="#B6207E" stroke="#B6207E" stroke-width="0.1"/>
<path d="M64.4673 45.9533L69.0879 56.8388C73.3812 66.9533 68.6869 78.6289 58.602 82.9625L64.4673 45.9533Z" fill="#892062" stroke="#892062" stroke-width="0.1"/>
<path d="M99.2709 62.7314L87.4903 63.762C76.5441 64.7197 66.8907 56.6472 65.8855 45.7167L99.2709 62.7314Z" fill="#F53633" stroke="#F53633" stroke-width="0.1"/>
<path d="M66.0057 45.6657L77.7864 44.635C88.7325 43.6773 98.386 51.7498 99.3911 62.6803L66.0057 45.6657Z" fill="#DB2C29" stroke="#DB2C29" stroke-width="0.1"/>
<path d="M92.6777 17.6128L66.1791 44.1064L68.8393 32.5838C71.3111 21.8775 81.9716 15.191 92.6777 17.6128Z" fill="#FF8A00" stroke="#FF8A00" stroke-width="0.1"/>
<path d="M92.6891 17.7429L90.0289 29.2654C87.5571 39.9718 76.8966 46.6582 66.1905 44.2365L92.6891 17.7429Z" fill="#FF9A24" stroke="#FF9A24" stroke-width="0.1"/>
</svg>
