<svg width="64" height="64" viewBox="0 0 64 64" fill="none" xmlns="http://www.w3.org/2000/svg">
<path d="M27.2549 11.4486L27.2548 11.4487L27.2567 11.4498C33.5207 15.2136 35.7367 23.0208 32.0237 29.2946L20.732 7.12824L27.2549 11.4486Z" fill="#67CB20" stroke="#67CB20" stroke-width="0.1"/>
<path d="M31.8966 29.2654L25.1887 25.2349C18.9262 21.472 16.8824 13.3627 20.5978 7.08503L31.8966 29.2654Z" fill="#6BA443" stroke="#6BA443" stroke-width="0.1"/>
<path d="M6.64373 33.8219L12.5498 28.6878C18.0638 23.8946 26.4076 24.4568 31.23 29.9302L6.64373 33.8219Z" fill="#0077CC" stroke="#0077CC" stroke-width="0.1"/>
<path d="M31.1629 30.042L25.2568 35.1761C19.7429 39.9693 11.399 39.4071 6.57666 33.9337L31.1629 30.042Z" fill="#00639A" stroke="#157DB7" stroke-width="0.1"/>
<path d="M27.7464 55.4966L24.6887 48.293C21.834 41.5678 24.947 33.806 31.6427 30.911L27.7464 55.4966Z" fill="#B6207E" stroke="#B6207E" stroke-width="0.1"/>
<path d="M31.7284 31.0094L34.7861 38.213C37.6408 44.9382 34.5278 52.7 27.8321 55.595L31.7284 31.0094Z" fill="#892062" stroke="#892062" stroke-width="0.1"/>
<path d="M54.8642 42.1233L47.0683 42.8054C39.7901 43.4421 33.3702 38.0829 32.686 30.8203L54.8642 42.1233Z" fill="#F53633" stroke="#F53633" stroke-width="0.1"/>
<path d="M32.806 30.7692L40.6019 30.0872C47.8801 29.4504 54.3001 34.8097 54.9843 42.0722L32.806 30.7692Z" fill="#DB2C29" stroke="#DB2C29" stroke-width="0.1"/>
<path d="M50.4949 12.0654L32.8916 29.6653L34.652 22.0402C36.2955 14.9214 43.3763 10.4718 50.4949 12.0654Z" fill="#FF8A00" stroke="#FF8A00" stroke-width="0.1"/>
<path d="M50.5063 12.1953L48.7459 19.8204C47.1024 26.9392 40.0216 31.3888 32.9031 29.7952L50.5063 12.1953Z" fill="#FF9A24" stroke="#FF9A24" stroke-width="0.1"/>
</svg>
