<svg width="192" height="64" viewBox="0 0 192 64" fill="none" xmlns="http://www.w3.org/2000/svg">
<path d="M75.68 31.98C75.424 31.66 75.104 31.396 74.72 31.188C74.352 30.964 73.896 30.852 73.352 30.852C72.84 30.852 72.392 30.964 72.008 31.188C71.64 31.396 71.456 31.708 71.456 32.124C71.456 32.46 71.56 32.732 71.768 32.94C71.992 33.148 72.248 33.316 72.536 33.444C72.84 33.572 73.16 33.668 73.496 33.732C73.832 33.796 74.12 33.852 74.36 33.9C74.824 34.012 75.256 34.148 75.656 34.308C76.072 34.468 76.424 34.676 76.712 34.932C77.016 35.188 77.248 35.5 77.408 35.868C77.584 36.236 77.672 36.684 77.672 37.212C77.672 37.852 77.536 38.404 77.264 38.868C76.992 39.316 76.64 39.684 76.208 39.972C75.776 40.26 75.28 40.468 74.72 40.596C74.176 40.724 73.624 40.788 73.064 40.788C72.12 40.788 71.288 40.644 70.568 40.356C69.864 40.068 69.232 39.54 68.672 38.772L70.304 37.428C70.656 37.78 71.048 38.092 71.48 38.364C71.912 38.636 72.44 38.772 73.064 38.772C73.336 38.772 73.608 38.748 73.88 38.7C74.168 38.636 74.416 38.548 74.624 38.436C74.848 38.308 75.024 38.156 75.152 37.98C75.296 37.788 75.368 37.572 75.368 37.332C75.368 37.012 75.264 36.748 75.056 36.54C74.864 36.332 74.624 36.172 74.336 36.06C74.064 35.932 73.768 35.836 73.448 35.772C73.144 35.692 72.872 35.628 72.632 35.58C72.168 35.468 71.728 35.34 71.312 35.196C70.896 35.052 70.528 34.86 70.208 34.62C69.888 34.38 69.632 34.076 69.44 33.708C69.248 33.34 69.152 32.884 69.152 32.34C69.152 31.748 69.272 31.236 69.512 30.804C69.768 30.356 70.096 29.988 70.496 29.7C70.912 29.412 71.376 29.196 71.888 29.052C72.416 28.908 72.944 28.836 73.472 28.836C74.24 28.836 74.976 28.98 75.68 29.268C76.384 29.556 76.944 30.036 77.36 30.708L75.68 31.98ZM80.4641 22.356H82.6241V40.5H80.4641V22.356ZM87.8137 34.812C87.8137 35.388 87.9017 35.924 88.0777 36.42C88.2537 36.9 88.5017 37.316 88.8217 37.668C89.1417 38.004 89.5337 38.276 89.9977 38.484C90.4617 38.676 90.9817 38.772 91.5577 38.772C92.1337 38.772 92.6537 38.676 93.1177 38.484C93.5817 38.276 93.9737 38.004 94.2937 37.668C94.6137 37.316 94.8617 36.9 95.0377 36.42C95.2137 35.924 95.3017 35.388 95.3017 34.812C95.3017 34.236 95.2137 33.708 95.0377 33.228C94.8617 32.732 94.6137 32.316 94.2937 31.98C93.9737 31.628 93.5817 31.356 93.1177 31.164C92.6537 30.956 92.1337 30.852 91.5577 30.852C90.9817 30.852 90.4617 30.956 89.9977 31.164C89.5337 31.356 89.1417 31.628 88.8217 31.98C88.5017 32.316 88.2537 32.732 88.0777 33.228C87.9017 33.708 87.8137 34.236 87.8137 34.812ZM85.5097 34.812C85.5097 33.98 85.6617 33.204 85.9657 32.484C86.2857 31.764 86.7177 31.132 87.2617 30.588C87.8057 30.044 88.4457 29.62 89.1817 29.316C89.9177 28.996 90.7097 28.836 91.5577 28.836C92.4057 28.836 93.1977 28.996 93.9337 29.316C94.6697 29.62 95.3097 30.044 95.8537 30.588C96.3977 31.132 96.8217 31.764 97.1257 32.484C97.4457 33.204 97.6057 33.98 97.6057 34.812C97.6057 35.644 97.4457 36.428 97.1257 37.164C96.8217 37.884 96.3977 38.516 95.8537 39.06C95.3097 39.588 94.6697 40.012 93.9337 40.332C93.1977 40.636 92.4057 40.788 91.5577 40.788C90.7097 40.788 89.9177 40.636 89.1817 40.332C88.4457 40.012 87.8057 39.588 87.2617 39.06C86.7177 38.516 86.2857 37.884 85.9657 37.164C85.6617 36.428 85.5097 35.644 85.5097 34.812ZM102.064 34.812C102.064 35.388 102.152 35.924 102.328 36.42C102.504 36.9 102.752 37.316 103.072 37.668C103.392 38.004 103.784 38.276 104.248 38.484C104.712 38.676 105.232 38.772 105.808 38.772C106.384 38.772 106.904 38.676 107.368 38.484C107.832 38.276 108.224 38.004 108.544 37.668C108.864 37.316 109.112 36.9 109.288 36.42C109.464 35.924 109.552 35.388 109.552 34.812C109.552 34.236 109.464 33.708 109.288 33.228C109.112 32.732 108.864 32.316 108.544 31.98C108.224 31.628 107.832 31.356 107.368 31.164C106.904 30.956 106.384 30.852 105.808 30.852C105.232 30.852 104.712 30.956 104.248 31.164C103.784 31.356 103.392 31.628 103.072 31.98C102.752 32.316 102.504 32.732 102.328 33.228C102.152 33.708 102.064 34.236 102.064 34.812ZM99.7597 34.812C99.7597 33.98 99.9117 33.204 100.216 32.484C100.536 31.764 100.968 31.132 101.512 30.588C102.056 30.044 102.696 29.62 103.432 29.316C104.168 28.996 104.96 28.836 105.808 28.836C106.656 28.836 107.448 28.996 108.184 29.316C108.92 29.62 109.56 30.044 110.104 30.588C110.648 31.132 111.072 31.764 111.376 32.484C111.696 33.204 111.856 33.98 111.856 34.812C111.856 35.644 111.696 36.428 111.376 37.164C111.072 37.884 110.648 38.516 110.104 39.06C109.56 39.588 108.92 40.012 108.184 40.332C107.448 40.636 106.656 40.788 105.808 40.788C104.96 40.788 104.168 40.636 103.432 40.332C102.696 40.012 102.056 39.588 101.512 39.06C100.968 38.516 100.536 37.884 100.216 37.164C99.9117 36.428 99.7597 35.644 99.7597 34.812ZM114.562 29.124H116.722V30.756H116.77C117.186 30.148 117.754 29.676 118.474 29.34C119.21 29.004 119.962 28.836 120.73 28.836C121.61 28.836 122.402 28.988 123.106 29.292C123.826 29.596 124.434 30.02 124.93 30.564C125.442 31.108 125.834 31.748 126.106 32.484C126.378 33.204 126.514 33.98 126.514 34.812C126.514 35.66 126.378 36.452 126.106 37.188C125.834 37.908 125.442 38.54 124.93 39.084C124.434 39.612 123.826 40.028 123.106 40.332C122.402 40.636 121.61 40.788 120.73 40.788C119.914 40.788 119.146 40.62 118.426 40.284C117.706 39.932 117.154 39.46 116.77 38.868H116.722V47.268H114.562V29.124ZM120.466 30.852C119.89 30.852 119.37 30.956 118.906 31.164C118.442 31.356 118.05 31.628 117.73 31.98C117.41 32.316 117.162 32.732 116.986 33.228C116.81 33.708 116.722 34.236 116.722 34.812C116.722 35.388 116.81 35.924 116.986 36.42C117.162 36.9 117.41 37.316 117.73 37.668C118.05 38.004 118.442 38.276 118.906 38.484C119.37 38.676 119.89 38.772 120.466 38.772C121.042 38.772 121.562 38.676 122.026 38.484C122.49 38.276 122.882 38.004 123.202 37.668C123.522 37.316 123.77 36.9 123.946 36.42C124.122 35.924 124.21 35.388 124.21 34.812C124.21 34.236 124.122 33.708 123.946 33.228C123.77 32.732 123.522 32.316 123.202 31.98C122.882 31.628 122.49 31.356 122.026 31.164C121.562 30.956 121.042 30.852 120.466 30.852ZM135.282 31.98C135.026 31.66 134.706 31.396 134.322 31.188C133.954 30.964 133.498 30.852 132.954 30.852C132.442 30.852 131.994 30.964 131.61 31.188C131.242 31.396 131.058 31.708 131.058 32.124C131.058 32.46 131.162 32.732 131.37 32.94C131.594 33.148 131.85 33.316 132.138 33.444C132.442 33.572 132.762 33.668 133.098 33.732C133.434 33.796 133.722 33.852 133.962 33.9C134.426 34.012 134.858 34.148 135.258 34.308C135.674 34.468 136.026 34.676 136.314 34.932C136.618 35.188 136.85 35.5 137.01 35.868C137.186 36.236 137.274 36.684 137.274 37.212C137.274 37.852 137.138 38.404 136.866 38.868C136.594 39.316 136.242 39.684 135.81 39.972C135.378 40.26 134.882 40.468 134.322 40.596C133.778 40.724 133.226 40.788 132.666 40.788C131.722 40.788 130.89 40.644 130.17 40.356C129.466 40.068 128.834 39.54 128.274 38.772L129.906 37.428C130.258 37.78 130.65 38.092 131.082 38.364C131.514 38.636 132.042 38.772 132.666 38.772C132.938 38.772 133.21 38.748 133.482 38.7C133.77 38.636 134.018 38.548 134.226 38.436C134.45 38.308 134.626 38.156 134.754 37.98C134.898 37.788 134.97 37.572 134.97 37.332C134.97 37.012 134.866 36.748 134.658 36.54C134.466 36.332 134.226 36.172 133.938 36.06C133.666 35.932 133.37 35.836 133.05 35.772C132.746 35.692 132.474 35.628 132.234 35.58C131.77 35.468 131.33 35.34 130.914 35.196C130.498 35.052 130.13 34.86 129.81 34.62C129.49 34.38 129.234 34.076 129.042 33.708C128.85 33.34 128.754 32.884 128.754 32.34C128.754 31.748 128.874 31.236 129.114 30.804C129.37 30.356 129.698 29.988 130.098 29.7C130.514 29.412 130.978 29.196 131.49 29.052C132.018 28.908 132.546 28.836 133.074 28.836C133.842 28.836 134.578 28.98 135.282 29.268C135.986 29.556 136.546 30.036 136.962 30.708L135.282 31.98ZM145.994 30.996H142.898V36.156C142.898 36.476 142.906 36.796 142.922 37.116C142.938 37.42 142.994 37.7 143.09 37.956C143.202 38.196 143.362 38.396 143.57 38.556C143.794 38.7 144.114 38.772 144.53 38.772C144.786 38.772 145.05 38.748 145.322 38.7C145.594 38.652 145.842 38.564 146.066 38.436V40.404C145.81 40.548 145.474 40.644 145.058 40.692C144.658 40.756 144.346 40.788 144.122 40.788C143.29 40.788 142.642 40.676 142.178 40.452C141.73 40.212 141.394 39.908 141.17 39.54C140.962 39.172 140.834 38.764 140.786 38.316C140.754 37.852 140.738 37.388 140.738 36.924V30.996H138.242V29.124H140.738V25.932H142.898V29.124H145.994V30.996ZM148.828 30.516C149.436 29.956 150.14 29.54 150.94 29.268C151.74 28.98 152.54 28.836 153.34 28.836C154.172 28.836 154.884 28.94 155.476 29.148C156.084 29.356 156.58 29.636 156.964 29.988C157.348 30.34 157.628 30.748 157.804 31.212C157.996 31.66 158.092 32.132 158.092 32.628V38.436C158.092 38.836 158.1 39.204 158.116 39.54C158.132 39.876 158.156 40.196 158.188 40.5H156.268C156.22 39.924 156.196 39.348 156.196 38.772H156.148C155.668 39.508 155.1 40.028 154.444 40.332C153.788 40.636 153.028 40.788 152.164 40.788C151.636 40.788 151.132 40.716 150.652 40.572C150.172 40.428 149.748 40.212 149.38 39.924C149.028 39.636 148.748 39.284 148.54 38.868C148.332 38.436 148.228 37.94 148.228 37.38C148.228 36.644 148.388 36.028 148.708 35.532C149.044 35.036 149.492 34.636 150.052 34.332C150.628 34.012 151.292 33.788 152.044 33.66C152.812 33.516 153.628 33.444 154.492 33.444H156.076V32.964C156.076 32.676 156.02 32.388 155.908 32.1C155.796 31.812 155.628 31.556 155.404 31.332C155.18 31.092 154.9 30.908 154.564 30.78C154.228 30.636 153.828 30.564 153.364 30.564C152.948 30.564 152.58 30.604 152.26 30.684C151.956 30.764 151.676 30.868 151.42 30.996C151.164 31.108 150.932 31.244 150.724 31.404C150.516 31.564 150.316 31.716 150.124 31.86L148.828 30.516ZM154.924 35.028C154.412 35.028 153.884 35.06 153.34 35.124C152.812 35.172 152.324 35.276 151.876 35.436C151.444 35.596 151.084 35.82 150.796 36.108C150.524 36.396 150.388 36.764 150.388 37.212C150.388 37.868 150.604 38.34 151.036 38.628C151.484 38.916 152.084 39.06 152.836 39.06C153.428 39.06 153.932 38.964 154.348 38.772C154.764 38.564 155.1 38.3 155.356 37.98C155.612 37.66 155.796 37.308 155.908 36.924C156.02 36.524 156.076 36.132 156.076 35.748V35.028H154.924ZM167.274 31.98C167.018 31.66 166.698 31.396 166.314 31.188C165.946 30.964 165.49 30.852 164.946 30.852C164.434 30.852 163.986 30.964 163.602 31.188C163.234 31.396 163.05 31.708 163.05 32.124C163.05 32.46 163.154 32.732 163.362 32.94C163.586 33.148 163.842 33.316 164.13 33.444C164.434 33.572 164.754 33.668 165.09 33.732C165.426 33.796 165.714 33.852 165.954 33.9C166.418 34.012 166.85 34.148 167.25 34.308C167.666 34.468 168.018 34.676 168.306 34.932C168.61 35.188 168.842 35.5 169.002 35.868C169.178 36.236 169.266 36.684 169.266 37.212C169.266 37.852 169.13 38.404 168.858 38.868C168.586 39.316 168.234 39.684 167.802 39.972C167.37 40.26 166.874 40.468 166.314 40.596C165.77 40.724 165.218 40.788 164.658 40.788C163.714 40.788 162.882 40.644 162.162 40.356C161.458 40.068 160.826 39.54 160.266 38.772L161.898 37.428C162.25 37.78 162.642 38.092 163.074 38.364C163.506 38.636 164.034 38.772 164.658 38.772C164.93 38.772 165.202 38.748 165.474 38.7C165.762 38.636 166.01 38.548 166.218 38.436C166.442 38.308 166.618 38.156 166.746 37.98C166.89 37.788 166.962 37.572 166.962 37.332C166.962 37.012 166.858 36.748 166.65 36.54C166.458 36.332 166.218 36.172 165.93 36.06C165.658 35.932 165.362 35.836 165.042 35.772C164.738 35.692 164.466 35.628 164.226 35.58C163.762 35.468 163.322 35.34 162.906 35.196C162.49 35.052 162.122 34.86 161.802 34.62C161.482 34.38 161.226 34.076 161.034 33.708C160.842 33.34 160.746 32.884 160.746 32.34C160.746 31.748 160.866 31.236 161.106 30.804C161.362 30.356 161.69 29.988 162.09 29.7C162.506 29.412 162.97 29.196 163.482 29.052C164.01 28.908 164.538 28.836 165.066 28.836C165.834 28.836 166.57 28.98 167.274 29.268C167.978 29.556 168.538 30.036 168.954 30.708L167.274 31.98ZM171.89 22.356H174.05V30.876H174.098C174.37 30.268 174.842 29.78 175.514 29.412C176.186 29.028 176.962 28.836 177.842 28.836C178.386 28.836 178.906 28.924 179.402 29.1C179.914 29.26 180.354 29.516 180.722 29.868C181.106 30.22 181.41 30.676 181.634 31.236C181.858 31.78 181.97 32.428 181.97 33.18V40.5H179.81V33.78C179.81 33.252 179.738 32.804 179.594 32.436C179.45 32.052 179.258 31.748 179.018 31.524C178.778 31.284 178.498 31.116 178.178 31.02C177.874 30.908 177.554 30.852 177.218 30.852C176.77 30.852 176.354 30.924 175.97 31.068C175.586 31.212 175.25 31.444 174.962 31.764C174.674 32.068 174.45 32.46 174.29 32.94C174.13 33.42 174.05 33.988 174.05 34.644V40.5H171.89V22.356Z" fill="white"/>
<path d="M29.1405 11.4486L29.1405 11.4487L29.1423 11.4498C35.4063 15.2136 37.6223 23.0208 33.9093 29.2946L22.6176 7.12824L29.1405 11.4486Z" fill="#67CB20" stroke="#67CB20" stroke-width="0.1"/>
<path d="M33.7822 29.2654L27.0743 25.2349C20.8118 21.472 18.7681 13.3627 22.4834 7.08503L33.7822 29.2654Z" fill="#6BA443" stroke="#6BA443" stroke-width="0.1"/>
<path d="M8.52937 33.8219L14.4355 28.6878C19.9494 23.8946 28.2933 24.4568 33.1156 29.9302L8.52937 33.8219Z" fill="#0077CC" stroke="#0077CC" stroke-width="0.1"/>
<path d="M33.0486 30.042L27.1425 35.1761C21.6285 39.9693 13.2847 39.4071 8.46229 33.9337L33.0486 30.042Z" fill="#00639A" stroke="#157DB7" stroke-width="0.1"/>
<path d="M29.632 55.4965L26.5743 48.293C23.7196 41.5678 26.8327 33.806 33.5284 30.911L29.632 55.4965Z" fill="#B6207E" stroke="#B6207E" stroke-width="0.1"/>
<path d="M33.6141 31.0094L36.6718 38.213C39.5265 44.9382 36.4134 52.7 29.7177 55.595L33.6141 31.0094Z" fill="#892062" stroke="#892062" stroke-width="0.1"/>
<path d="M56.7498 42.1233L48.9539 42.8053C41.6757 43.4421 35.2558 38.0829 34.5716 30.8203L56.7498 42.1233Z" fill="#F53633" stroke="#F53633" stroke-width="0.1"/>
<path d="M34.6917 30.7692L42.4876 30.0872C49.7658 29.4504 56.1857 34.8096 56.8699 42.0722L34.6917 30.7692Z" fill="#DB2C29" stroke="#DB2C29" stroke-width="0.1"/>
<path d="M52.3805 12.0654L34.7773 29.6653L36.5377 22.0402C38.1812 14.9214 45.2619 10.4718 52.3805 12.0654Z" fill="#FF8A00" stroke="#FF8A00" stroke-width="0.1"/>
<path d="M52.3919 12.1953L50.6315 19.8204C48.988 26.9392 41.9073 31.3888 34.7887 29.7952L52.3919 12.1953Z" fill="#FF9A24" stroke="#FF9A24" stroke-width="0.1"/>
</svg>
